<?xml version="1.0" encoding="UTF-8"?>
<!DOCTYPE svg PUBLIC "-//W3C//DTD SVG 1.1//EN" "http://www.w3.org/Graphics/SVG/1.1/DTD/svg11.dtd">
<!-- Creator: CorelDRAW 2020 (64 Bit) -->
<svg xmlns="http://www.w3.org/2000/svg" xml:space="preserve" width="12.4938mm" height="12.4933mm" version="1.1" style="shape-rendering:geometricPrecision; text-rendering:geometricPrecision; image-rendering:optimizeQuality; fill-rule:evenodd; clip-rule:evenodd"
viewBox="0 0 22.45 22.45"
 xmlns:xlink="http://www.w3.org/1999/xlink"
 xmlns:xodm="http://www.corel.com/coreldraw/odm/2003">
 <defs>
  <style type="text/css">
   <![CDATA[
    .fil0 {fill:#373435}
   ]]>
  </style>
 </defs>
 <g id="Camada_x0020_1">
  <metadata id="CorelCorpID_0Corel-Layer"/>
  <g id="_1212937151216">
   <path class="fil0" d="M5.92 0.15c-3.06,0.42 -5.25,2.49 -5.76,5.45 -0.22,1.28 -0.21,9.67 -0.03,11.09 0.36,2.86 2.71,5.15 5.51,5.6 1.34,0.22 9.68,0.22 11.07,0.01 2.88,-0.43 5.13,-2.64 5.57,-5.52 0.21,-1.35 0.22,-9.65 0.02,-11.01 -0.42,-2.92 -2.68,-5.17 -5.51,-5.6 -1.43,-0.22 -9.42,-0.22 -10.87,-0.02zm0.22 1.93c-2.62,0.37 -4.09,2.18 -4.12,5.09 -0.02,2.42 -0.25,7.06 0.06,9.26 0.35,2.47 2.32,4 5.13,4.01 2.5,0.01 6.97,0.25 9.25,-0.06 2.53,-0.35 3.96,-2.3 3.95,-5.13 -0.01,-2.5 0.26,-6.95 -0.04,-9.21 -0.33,-2.46 -2.32,-3.99 -5.09,-3.99 -2.38,0 -7.06,-0.26 -9.14,0.03z"/>
   <path class="fil0" d="M9.85 5.77c-2.68,0.72 -4.94,3.3 -4.11,6.82 0.61,2.6 3.37,4.94 6.77,4.14 2.66,-0.63 5.06,-3.45 4.19,-6.89 -0.67,-2.66 -3.51,-4.97 -6.85,-4.08zm0.9 1.8c-4.88,0.75 -3.89,7.92 0.99,7.33 1.85,-0.22 3.47,-2.09 3.15,-4.24 -0.29,-1.87 -2.03,-3.42 -4.14,-3.09z"/>
   <path class="fil0" d="M16.68 4.1c-0.68,0.31 -0.98,0.83 -0.63,1.68 0.22,0.53 0.88,0.96 1.69,0.66 1.53,-0.58 0.72,-3.13 -1.06,-2.33z"/>
  </g>
 </g>
</svg>
