<?xml version="1.0" encoding="UTF-8"?>
<!DOCTYPE svg PUBLIC "-//W3C//DTD SVG 1.1//EN" "http://www.w3.org/Graphics/SVG/1.1/DTD/svg11.dtd">
<!-- Creator: CorelDRAW 2020 (64 Bit) -->
<svg xmlns="http://www.w3.org/2000/svg" xml:space="preserve" width="11.5858mm" height="11.5935mm" version="1.1" style="shape-rendering:geometricPrecision; text-rendering:geometricPrecision; image-rendering:optimizeQuality; fill-rule:evenodd; clip-rule:evenodd"
viewBox="0 0 18.31 18.32"
 xmlns:xlink="http://www.w3.org/1999/xlink"
 xmlns:xodm="http://www.corel.com/coreldraw/odm/2003">
 <defs>
  <style type="text/css">
   <![CDATA[
    .fil0 {fill:#373435}
   ]]>
  </style>
 </defs>
 <g id="Camada_x0020_1">
  <metadata id="CorelCorpID_0Corel-Layer"/>
  <g id="_1213142368448">
   <path class="fil0" d="M1.01 18.29c0.74,-0.15 3.03,-1.13 3.51,-1.11 0.18,0.01 6.24,3.33 10.86,-1.37 1.81,-1.85 2.95,-3.75 2.92,-6.73 -0.05,-5.41 -4.68,-9.5 -10.04,-9.04 -1.42,0.12 -2.63,0.58 -3.66,1.15 -0.95,0.53 -2,1.44 -2.61,2.22 -1.9,2.39 -2.67,5.99 -1.28,9.35 0.26,0.62 0.69,1.14 0.86,1.55 0.31,0.75 -0.42,3.01 -0.56,3.98zm1.79 -2.05c2.12,-0.56 1.26,-0.94 2.9,-0.08 0.88,0.46 2.1,0.78 3.24,0.81 2.56,0.06 4.48,-1.09 5.73,-2.31 2.16,-2.09 3.03,-5.89 1.47,-8.94 -2.6,-5.08 -9.43,-5.83 -12.91,-1.64 -2.12,2.56 -2.63,5.98 -0.79,9.08 0.29,0.48 0.67,0.81 0.68,1.31 0,0.33 -0.25,1.33 -0.32,1.77z"/>
   <path class="fil0" d="M14.03 11.36c-0.44,-0.3 -1.87,-1.07 -2.5,-1.09 -0.21,0.07 -0.85,1.1 -1.16,1.19 -1.42,-0.16 -3.46,-2.04 -3.61,-3.23 0.15,-0.69 1.27,-0.14 0.31,-2.39 -0.18,-0.42 -0.29,-0.91 -0.62,-1.09 -1.63,-0.9 -3.49,2.28 -0.83,5.25 1.19,1.33 1.84,2.32 3.95,3.16 2.07,0.82 4.48,0.81 4.47,-1.79z"/>
  </g>
 </g>
</svg>
